{
    "asset" : {
        "generator" : "Khronos glTF Blender I/O v0.9.10",
        "version" : "2.0"
    },
    "scene" : 0,
    "scenes" : [
        {
            "name" : "Scene",
            "nodes" : [
                0,
                1,
                2,
                3,
                4,
                5
            ]
        }
    ],
    "nodes" : [
        {
            "mesh" : 0,
            "name" : "BowlsDesignerSet001_05"
        },
        {
            "mesh" : 1,
            "name" : "BowlsDesignerSet001_02"
        },
        {
            "mesh" : 2,
            "name" : "BowlsDesignerSet001_06"
        },
        {
            "mesh" : 3,
            "name" : "BowlsDesignerSet001_04"
        },
        {
            "mesh" : 4,
            "name" : "BowlsDesignerSet001_01"
        },
        {
            "mesh" : 5,
            "name" : "BowlsDesignerSet001_03"
        }
    ],
    "materials" : [
        {
            "doubleSided" : true,
            "name" : "BowlsDesignerSet001_1K",
            "normalTexture" : {
                "index" : 0,
                "texCoord" : 0
            },
            "pbrMetallicRoughness" : {
                "baseColorTexture" : {
                    "index" : 1,
                    "texCoord" : 0
                },
                "metallicFactor" : 0,
                "metallicRoughnessTexture" : {
                    "index" : 2,
                    "texCoord" : 0
                }
            }
        }
    ],
    "meshes" : [
        {
            "name" : "BowlsDesignerSet001_05",
            "primitives" : [
                {
                    "attributes" : {
                        "POSITION" : 0,
                        "NORMAL" : 1,
                        "TANGENT" : 2,
                        "TEXCOORD_0" : 3
                    },
                    "indices" : 4,
                    "material" : 0
                }
            ]
        },
        {
            "name" : "BowlsDesignerSet001_02",
            "primitives" : [
                {
                    "attributes" : {
                        "POSITION" : 5,
                        "NORMAL" : 6,
                        "TANGENT" : 7,
                        "TEXCOORD_0" : 8
                    },
                    "indices" : 9,
                    "material" : 0
                }
            ]
        },
        {
            "name" : "BowlsDesignerSet001_06",
            "primitives" : [
                {
                    "attributes" : {
                        "POSITION" : 10,
                        "NORMAL" : 11,
                        "TANGENT" : 12,
                        "TEXCOORD_0" : 13
                    },
                    "indices" : 14,
                    "material" : 0
                }
            ]
        },
        {
            "name" : "BowlsDesignerSet001_04",
            "primitives" : [
                {
                    "attributes" : {
                        "POSITION" : 15,
                        "NORMAL" : 16,
                        "TANGENT" : 17,
                        "TEXCOORD_0" : 18
                    },
                    "indices" : 19,
                    "material" : 0
                }
            ]
        },
        {
            "name" : "BowlsDesignerSet001_01",
            "primitives" : [
                {
                    "attributes" : {
                        "POSITION" : 20,
                        "NORMAL" : 21,
                        "TANGENT" : 22,
                        "TEXCOORD_0" : 23
                    },
                    "indices" : 24,
                    "material" : 0
                }
            ]
        },
        {
            "name" : "BowlsDesignerSet001_03",
            "primitives" : [
                {
                    "attributes" : {
                        "POSITION" : 25,
                        "NORMAL" : 26,
                        "TANGENT" : 27,
                        "TEXCOORD_0" : 28
                    },
                    "indices" : 29,
                    "material" : 0
                }
            ]
        }
    ],
    "textures" : [
        {
            "source" : 0
        },
        {
            "source" : 1
        },
        {
            "source" : 2
        }
    ],
    "images" : [
        {
            "bufferView" : 5,
            "mimeType" : "image/png",
            "name" : "BowlsDesignerSet001_NRM_1K"
        },
        {
            "bufferView" : 6,
            "mimeType" : "image/jpeg",
            "name" : "BowlsDesignerSet001_COL_1K"
        },
        {
            "bufferView" : 7,
            "mimeType" : "image/png",
            "name" : "BowlsDesignerSet001_ROUGH_1K"
        }
    ],
    "accessors" : [
        {
            "bufferView" : 0,
            "componentType" : 5126,
            "count" : 2822,
            "max" : [
                0.7534199953079224,
                1.0399199724197388,
                0.689750075340271
            ],
            "min" : [
                -0.7534199953079224,
                0.38192999362945557,
                -0.6897499561309814
            ],
            "type" : "VEC3"
        },
        {
            "bufferView" : 1,
            "componentType" : 5126,
            "count" : 2822,
            "type" : "VEC3"
        },
        {
            "bufferView" : 2,
            "componentType" : 5126,
            "count" : 2822,
            "type" : "VEC4"
        },
        {
            "bufferView" : 3,
            "componentType" : 5126,
            "count" : 2822,
            "type" : "VEC2"
        },
        {
            "bufferView" : 4,
            "componentType" : 5123,
            "count" : 16512,
            "type" : "SCALAR"
        },
        {
            "bufferView" : 8,
            "componentType" : 5126,
            "count" : 2827,
            "max" : [
                0.7534199953079224,
                0.7531700134277344,
                0.6897500157356262
            ],
            "min" : [
                -0.7534199953079224,
                0.09516999125480652,
                -0.6897500157356262
            ],
            "type" : "VEC3"
        },
        {
            "bufferView" : 9,
            "componentType" : 5126,
            "count" : 2827,
            "type" : "VEC3"
        },
        {
            "bufferView" : 10,
            "componentType" : 5126,
            "count" : 2827,
            "type" : "VEC4"
        },
        {
            "bufferView" : 11,
            "componentType" : 5126,
            "count" : 2827,
            "type" : "VEC2"
        },
        {
            "bufferView" : 12,
            "componentType" : 5123,
            "count" : 16512,
            "type" : "SCALAR"
        },
        {
            "bufferView" : 13,
            "componentType" : 5126,
            "count" : 2820,
            "max" : [
                0.7534199953079224,
                1.1390199661254883,
                0.689750075340271
            ],
            "min" : [
                -0.7534199953079224,
                0.48103001713752747,
                -0.6897499561309814
            ],
            "type" : "VEC3"
        },
        {
            "bufferView" : 14,
            "componentType" : 5126,
            "count" : 2820,
            "type" : "VEC3"
        },
        {
            "bufferView" : 15,
            "componentType" : 5126,
            "count" : 2820,
            "type" : "VEC4"
        },
        {
            "bufferView" : 16,
            "componentType" : 5126,
            "count" : 2820,
            "type" : "VEC2"
        },
        {
            "bufferView" : 17,
            "componentType" : 5123,
            "count" : 16512,
            "type" : "SCALAR"
        },
        {
            "bufferView" : 18,
            "componentType" : 5126,
            "count" : 2824,
            "max" : [
                0.7534199953079224,
                0.9446200132369995,
                0.6897500157356262
            ],
            "min" : [
                -0.7534199953079224,
                0.28662997484207153,
                -0.6897500157356262
            ],
            "type" : "VEC3"
        },
        {
            "bufferView" : 19,
            "componentType" : 5126,
            "count" : 2824,
            "type" : "VEC3"
        },
        {
            "bufferView" : 20,
            "componentType" : 5126,
            "count" : 2824,
            "type" : "VEC4"
        },
        {
            "bufferView" : 21,
            "componentType" : 5126,
            "count" : 2824,
            "type" : "VEC2"
        },
        {
            "bufferView" : 22,
            "componentType" : 5123,
            "count" : 16512,
            "type" : "SCALAR"
        },
        {
            "bufferView" : 23,
            "componentType" : 5126,
            "count" : 2825,
            "max" : [
                0.7534199953079224,
                0.6580000519752502,
                0.6897500157356262
            ],
            "min" : [
                -0.7534199953079224,
                9.987611520045903e-06,
                -0.6897500157356262
            ],
            "type" : "VEC3"
        },
        {
            "bufferView" : 24,
            "componentType" : 5126,
            "count" : 2825,
            "type" : "VEC3"
        },
        {
            "bufferView" : 25,
            "componentType" : 5126,
            "count" : 2825,
            "type" : "VEC4"
        },
        {
            "bufferView" : 26,
            "componentType" : 5126,
            "count" : 2825,
            "type" : "VEC2"
        },
        {
            "bufferView" : 27,
            "componentType" : 5123,
            "count" : 16512,
            "type" : "SCALAR"
        },
        {
            "bufferView" : 28,
            "componentType" : 5126,
            "count" : 2822,
            "max" : [
                0.7534199953079224,
                0.8489099740982056,
                0.6897500157356262
            ],
            "min" : [
                -0.7534199953079224,
                0.19091996550559998,
                -0.6897500157356262
            ],
            "type" : "VEC3"
        },
        {
            "bufferView" : 29,
            "componentType" : 5126,
            "count" : 2822,
            "type" : "VEC3"
        },
        {
            "bufferView" : 30,
            "componentType" : 5126,
            "count" : 2822,
            "type" : "VEC4"
        },
        {
            "bufferView" : 31,
            "componentType" : 5126,
            "count" : 2822,
            "type" : "VEC2"
        },
        {
            "bufferView" : 32,
            "componentType" : 5123,
            "count" : 16512,
            "type" : "SCALAR"
        }
    ],
    "bufferViews" : [
        {
            "buffer" : 0,
            "byteLength" : 33864,
            "byteOffset" : 0
        },
        {
            "buffer" : 0,
            "byteLength" : 33864,
            "byteOffset" : 33864
        },
        {
            "buffer" : 0,
            "byteLength" : 45152,
            "byteOffset" : 67728
        },
        {
            "buffer" : 0,
            "byteLength" : 22576,
            "byteOffset" : 112880
        },
        {
            "buffer" : 0,
            "byteLength" : 33024,
            "byteOffset" : 135456
        },
        {
            "buffer" : 0,
            "byteLength" : 652117,
            "byteOffset" : 168480
        },
        {
            "buffer" : 0,
            "byteLength" : 44014,
            "byteOffset" : 820600
        },
        {
            "buffer" : 0,
            "byteLength" : 15799,
            "byteOffset" : 864616
        },
        {
            "buffer" : 0,
            "byteLength" : 33924,
            "byteOffset" : 880416
        },
        {
            "buffer" : 0,
            "byteLength" : 33924,
            "byteOffset" : 914340
        },
        {
            "buffer" : 0,
            "byteLength" : 45232,
            "byteOffset" : 948264
        },
        {
            "buffer" : 0,
            "byteLength" : 22616,
            "byteOffset" : 993496
        },
        {
            "buffer" : 0,
            "byteLength" : 33024,
            "byteOffset" : 1016112
        },
        {
            "buffer" : 0,
            "byteLength" : 33840,
            "byteOffset" : 1049136
        },
        {
            "buffer" : 0,
            "byteLength" : 33840,
            "byteOffset" : 1082976
        },
        {
            "buffer" : 0,
            "byteLength" : 45120,
            "byteOffset" : 1116816
        },
        {
            "buffer" : 0,
            "byteLength" : 22560,
            "byteOffset" : 1161936
        },
        {
            "buffer" : 0,
            "byteLength" : 33024,
            "byteOffset" : 1184496
        },
        {
            "buffer" : 0,
            "byteLength" : 33888,
            "byteOffset" : 1217520
        },
        {
            "buffer" : 0,
            "byteLength" : 33888,
            "byteOffset" : 1251408
        },
        {
            "buffer" : 0,
            "byteLength" : 45184,
            "byteOffset" : 1285296
        },
        {
            "buffer" : 0,
            "byteLength" : 22592,
            "byteOffset" : 1330480
        },
        {
            "buffer" : 0,
            "byteLength" : 33024,
            "byteOffset" : 1353072
        },
        {
            "buffer" : 0,
            "byteLength" : 33900,
            "byteOffset" : 1386096
        },
        {
            "buffer" : 0,
            "byteLength" : 33900,
            "byteOffset" : 1419996
        },
        {
            "buffer" : 0,
            "byteLength" : 45200,
            "byteOffset" : 1453896
        },
        {
            "buffer" : 0,
            "byteLength" : 22600,
            "byteOffset" : 1499096
        },
        {
            "buffer" : 0,
            "byteLength" : 33024,
            "byteOffset" : 1521696
        },
        {
            "buffer" : 0,
            "byteLength" : 33864,
            "byteOffset" : 1554720
        },
        {
            "buffer" : 0,
            "byteLength" : 33864,
            "byteOffset" : 1588584
        },
        {
            "buffer" : 0,
            "byteLength" : 45152,
            "byteOffset" : 1622448
        },
        {
            "buffer" : 0,
            "byteLength" : 22576,
            "byteOffset" : 1667600
        },
        {
            "buffer" : 0,
            "byteLength" : 33024,
            "byteOffset" : 1690176
        }
    ],
    "buffers" : [
        {
            "byteLength" : 1723200,
            "uri" : "data:application/octet-stream;base64,"
        }
    ]
}
